<svg width="40" height="34" viewBox="0 0 40 34" fill="none" xmlns="http://www.w3.org/2000/svg">
<path d="M39.36 9.24363C39.7455 9.14909 40 8.79272 40 8.4V7.70909C40 7.43273 39.8691 7.17091 39.6509 7.01091C38.9236 6.46545 38.0945 6.07273 37.2145 5.84727L36.7927 5.73818C36.2109 5.58545 35.6073 5.94182 35.4618 6.52363L34.96 8.51636L32 1.83273C31.6073 0.952727 30.7636 0.370909 29.8036 0.32C27.9055 0.225455 23.1418 0 20.0073 0C16.8655 0 12.1091 0.225455 10.2109 0.32C9.25091 0.370909 8.40727 0.945455 8.01455 1.83273L5.05455 8.51636L4.55273 6.52363C4.40727 5.93454 3.81091 5.58545 3.22182 5.73818L2.8 5.84727C1.92 6.07273 1.09091 6.47273 0.363636 7.01091C0.130909 7.17818 0 7.43273 0 7.70909V8.4C0 8.79272 0.261818 9.14909 0.64 9.24363C1.07636 9.35273 1.73818 9.46182 2.64 9.46182C2.69091 9.46182 2.72727 9.46182 2.77818 9.46182L2.56727 9.54182C1.03273 10.1309 0 11.6364 0 13.28V21.6582C0 21.7091 0.00727273 21.76 0.00727273 21.8109H0V32.0073C0 33.0109 0.814546 33.8254 1.81818 33.8254H5.45455C6.45818 33.8254 7.27273 33.0109 7.27273 32.0073V27.28H32.7273V32.0073C32.7273 33.0109 33.5418 33.8254 34.5455 33.8254H38.1818C39.1855 33.8254 40 33.0109 40 32.0073V21.8109H39.9927C40 21.7164 40 21.6582 40 21.6436V13.28C40 11.6364 38.9673 10.1382 37.4327 9.54909L37.2218 9.46909C37.2655 9.46909 37.3091 9.46909 37.36 9.46909C38.2618 9.46182 38.9236 9.35273 39.36 9.24363ZM10 2.72C10.0582 2.59636 10.1745 2.50909 10.3127 2.50182C12.1964 2.40727 16.9091 2.18909 20 2.18909C23.0909 2.18909 27.8036 2.40727 29.6873 2.50182C29.8255 2.50909 29.9418 2.58909 30 2.72L32.3927 8.13091C30.3055 7.91273 26.4291 7.65091 20 7.65091C13.5636 7.65091 9.68727 7.92 7.59273 8.13091L10 2.72ZM8 18.5454C8.8 18.5454 9.45455 17.8909 9.45455 17.0909V14.9164H30.5455V17.12C30.5455 17.92 31.2 18.5745 32 18.5745C32.8 18.5745 33.4545 17.92 33.4545 17.12V14.9164H37.8182V20.0073H2.18182V14.9164H6.54545V17.0909C6.54545 17.8909 7.2 18.5454 8 18.5454ZM2.23273 22.1891H37.7745C37.6945 22.7854 37.4691 23.7454 36.8291 24.3927C36.3564 24.8654 35.7309 25.0982 34.9091 25.0982H5.09091C2.90909 25.0982 2.36364 23.1782 2.23273 22.1891ZM5.09091 31.6436H2.18182V26.3927C2.91636 26.9309 3.86182 27.28 5.09091 27.28V31.6436ZM34.9091 31.6436V27.28C36.0436 27.28 37.0182 26.9818 37.8182 26.4V31.6436H34.9091ZM37.7309 12.7345H33.2582C33.0109 12.2909 32.5382 11.9855 31.9927 11.9855C31.4473 11.9855 30.9745 12.2909 30.7273 12.7345H9.26545C9.01818 12.2909 8.54545 11.9855 8 11.9855C7.45455 11.9855 6.98182 12.2909 6.73455 12.7345H2.26909C2.43636 12.2182 2.82909 11.7818 3.35273 11.5782L6.11636 10.5164C6.68364 10.4218 10.5527 9.82545 20.0145 9.82545C29.4764 9.82545 33.3309 10.4218 33.8982 10.5164L36.6618 11.5782C37.1782 11.7818 37.5709 12.2182 37.7309 12.7345Z" fill="#151515"/>
<rect x="6.5" y="12" width="3" height="6.6" rx="1.5" fill="#FFAC00"/>
<rect x="30.5" y="12" width="3" height="6.6" rx="1.5" fill="#FFAC00"/>
</svg>
