<svg width="39" height="39" viewBox="0 0 39 39" fill="none" xmlns="http://www.w3.org/2000/svg">
<path d="M19.1667 0C8.60061 0 0 8.60061 0 19.1667C0 29.7327 8.60061 38.3333 19.1667 38.3333C29.7327 38.3333 38.3333 29.7327 38.3333 19.1667C38.3333 8.60061 29.7327 0 19.1667 0ZM19.1667 36.2424C9.75061 36.2424 2.09091 28.5827 2.09091 19.1667C2.09091 9.75061 9.75061 2.09091 19.1667 2.09091C28.5827 2.09091 36.2424 9.75061 36.2424 19.1667C36.2424 28.5827 28.5827 36.2424 19.1667 36.2424Z" fill="#151515"/>
<path d="M9.14844 29.1863L24.1751 24.1751L29.1863 9.14844L14.1597 14.1596L9.14844 29.1863ZM25.8757 12.459L22.5233 22.5233L12.459 25.8757L15.8115 15.8115L25.8757 12.459Z" fill="#FFAC00"/>
<path d="M19.0753 21.2795C20.2301 21.2795 21.1662 20.3433 21.1662 19.1886C21.1662 18.0338 20.2301 17.0977 19.0753 17.0977C17.9205 17.0977 16.9844 18.0338 16.9844 19.1886C16.9844 20.3433 17.9205 21.2795 19.0753 21.2795Z" fill="#151515"/>
</svg>
