<svg width="33" height="40" viewBox="0 0 33 40" fill="none" xmlns="http://www.w3.org/2000/svg">
<path d="M2 25.4C2 25.4 3.8 23.6 9.2 23.6C14.6 23.6 18.2 27.2 23.6 27.2C29 27.2 30.8 25.4 30.8 25.4V3.8C30.8 3.8 29 5.6 23.6 5.6C18.2 5.6 14.6 2 9.2 2C3.8 2 2 3.8 2 3.8V25.4Z" stroke="#151515" stroke-width="2.5" stroke-linecap="round" stroke-linejoin="round"/>
<path d="M23.6 20.3C18.2 20.3 14.6 16.7 9.2 16.7L7 16.9458V8.11008C7.65585 8.04079 8.38714 8 9.2 8C14.6 8 18.2 11.6 23.6 11.6C24.4965 11.6 25.2937 11.5504 26 11.4676V20.1676C25.2937 20.2504 24.4965 20.3 23.6 20.3Z" stroke="#FFAC00" stroke-width="2.5" stroke-linecap="round" stroke-linejoin="round"/>
<path d="M2 38V25.4" stroke="#151515" stroke-width="2.5" stroke-linecap="round" stroke-linejoin="round"/>
</svg>
